{
	"patcher" : 	{
		"fileversion" : 1,
		"appversion" : 		{
			"major" : 8,
			"minor" : 5,
			"revision" : 2,
			"architecture" : "x64",
			"modernui" : 1
		}
,
		"classnamespace" : "box",
		"rect" : [ 478.0, 259.0, 984.0, 674.0 ],
		"bglocked" : 0,
		"openinpresentation" : 1,
		"default_fontsize" : 12.0,
		"default_fontface" : 0,
		"default_fontname" : "Arial",
		"gridonopen" : 1,
		"gridsize" : [ 15.0, 15.0 ],
		"gridsnaponopen" : 1,
		"objectsnaponopen" : 1,
		"statusbarvisible" : 2,
		"toolbarvisible" : 1,
		"lefttoolbarpinned" : 0,
		"toptoolbarpinned" : 0,
		"righttoolbarpinned" : 0,
		"bottomtoolbarpinned" : 0,
		"toolbars_unpinned_last_save" : 0,
		"tallnewobj" : 0,
		"boxanimatetime" : 200,
		"enablehscroll" : 1,
		"enablevscroll" : 1,
		"devicewidth" : 0.0,
		"description" : "",
		"digest" : "",
		"tags" : "",
		"style" : "",
		"subpatcher_template" : "",
		"assistshowspatchername" : 0,
		"boxes" : [ 			{
				"box" : 				{
					"id" : "obj-7",
					"maxclass" : "newobj",
					"numinlets" : 1,
					"numoutlets" : 2,
					"outlettype" : [ "", "bang" ],
					"patching_rect" : [ 42.0, 303.0, 113.0, 22.0 ],
					"saved_object_attributes" : 					{
						"versionnumber" : 80300
					}
,
					"text" : "bach.portal @out m"
				}

			}
, 			{
				"box" : 				{
					"id" : "obj-9",
					"maxclass" : "newobj",
					"numinlets" : 1,
					"numoutlets" : 2,
					"outlettype" : [ "", "int" ],
					"patching_rect" : [ 252.0, 147.260873317718506, 128.0, 22.0 ],
					"text" : "conformpath max boot"
				}

			}
, 			{
				"box" : 				{
					"fontname" : "Andale Mono",
					"fontsize" : 8.0,
					"id" : "obj-8",
					"linecount" : 3,
					"maxclass" : "comment",
					"numinlets" : 1,
					"numoutlets" : 0,
					"patching_rect" : [ 576.5, 413.0, 68.0, 33.0 ],
					"presentation" : 1,
					"presentation_rect" : [ 6.865261912345886, 68.846040310859621, 90.0, 15.0 ],
					"text" : "to Cluster-Engine",
					"textjustification" : 2
				}

			}
, 			{
				"box" : 				{
					"comment" : "",
					"id" : "obj-6",
					"index" : 0,
					"maxclass" : "outlet",
					"numinlets" : 1,
					"numoutlets" : 0,
					"patching_rect" : [ 42.0, 381.0, 30.0, 30.0 ]
				}

			}
, 			{
				"box" : 				{
					"id" : "obj-5",
					"maxclass" : "newobj",
					"numinlets" : 1,
					"numoutlets" : 3,
					"outlettype" : [ "bang", "", "" ],
					"patching_rect" : [ 375.0, 85.0, 40.0, 22.0 ],
					"text" : "t b l l"
				}

			}
, 			{
				"box" : 				{
					"id" : "obj-4",
					"maxclass" : "newobj",
					"numinlets" : 1,
					"numoutlets" : 2,
					"outlettype" : [ "", "int" ],
					"patching_rect" : [ 396.0, 179.0, 55.0, 22.0 ],
					"text" : "strippath"
				}

			}
, 			{
				"box" : 				{
					"id" : "obj-3",
					"maxclass" : "newobj",
					"numinlets" : 1,
					"numoutlets" : 2,
					"outlettype" : [ "", "bang" ],
					"patching_rect" : [ 375.0, 53.553078689621771, 67.0, 22.0 ],
					"text" : "opendialog"
				}

			}
, 			{
				"box" : 				{
					"id" : "obj-2",
					"maxclass" : "newobj",
					"numinlets" : 2,
					"numoutlets" : 1,
					"outlettype" : [ "" ],
					"patching_rect" : [ 110.0, 147.260873317718506, 117.0, 22.0 ],
					"reg_data_0000000000" : [ "[", "progn", "[", "ce::preferences", "t", 200000000, ":self", ":other", ":other", ":rhythm", ":rhythm", ":self", ":rhythm", ":self", ":next-pitch", ":next", "]", "[", "defvar", "nn", "[", "snn:restore", "model", "]", "]", "[", "defun", "binary_to_integer_representation", "[", "binarylist", "]", "[", "unless", "[", "=", "[", "length", "binarylist", "]", 8, "]", "[", "error", "Input must be an 8-bit binary array", "]", "]", "[", "let", "[", "[", "sign", "[", "if", "[", "=", "[", "first", "binarylist", "]", 1, "]", -1, 1, "]", "]", "[", "magnitude", 0, "]", "]", "[", "dotimes", "[", "i", 7, "]", "[", "setf", "magnitude", "[", "+", "magnitude", "[", "*", "[", "nth", "[", "1+", "i", "]", "binarylist", "]", "[", "expt", 2, "[", "-", 6, "i", "]", "]", "]", "]", "]", "]", "[", "*", "sign", "magnitude", "]", "]", "]", "[", "defun", "integer_to_binary_representation", "[", "input", "]", "[", "let*", "[", "[", "abs-input", "[", "abs", "input", "]", "]", "[", "binary-list", "[", "make-list", 8, ":initial-element", 0, "]", "]", "]", "[", "dotimes", "[", "i", "[", "min", 8, "[", "integer-length", "abs-input", "]", "]", "]", "[", "setf", "[", "nth", "[", "-", 7, "i", "]", "binary-list", "]", "[", "logand", "abs-input", 1, "]", "]", "[", "setq", "abs-input", "[", "ash", "abs-input", -1, "]", "]", "]", "[", "if", "[", "minusp", "input", "]", "[", "progn", "[", "setf", "[", "first", "binary-list", "]", 1, "]", "]", "]", "binary-list", "]", "]", "[", "defun", "normalize1", "[", "input", "]", "[", "map", "'vector", "[", "lambda", "[", "x", "]", "[", "if", "[", "=", "x", 1, "]", "1.0d0", "-1.0d0", "]", "]", "input", "]", "]", "[", "defun", "denormalize2", "[", "output", "]", "[", "map", "'list", "[", "lambda", "[", "x", "]", "[", "if", "[", "plusp", "x", "]", 1, 0, "]", "]", "output", "]", "]", "[", "defun", "inputs2binary", "[", "inputlist", "]", "[", "patch-work::flat", "[", "mapcar", "#'integer_to_binary_representation", "inputlist", "]", "]", "]", "[", "defun", "binary2inputs", "[", "binarylist", "]", "[", "binary_to_integer_representation", "binarylist", "]", "]", "]" ],
					"reg_data_count" : [ 1 ],
					"saved_object_attributes" : 					{
						"embed" : 1,
						"versionnumber" : 80300
					}
,
					"text" : "bach.reg @embed 1"
				}

			}
, 			{
				"box" : 				{
					"id" : "obj-23",
					"maxclass" : "button",
					"numinlets" : 1,
					"numoutlets" : 1,
					"outlettype" : [ "bang" ],
					"parameter_enable" : 0,
					"patching_rect" : [ 77.416666587193788, 185.408909041904735, 24.0, 24.0 ]
				}

			}
, 			{
				"box" : 				{
					"id" : "obj-52",
					"maxclass" : "newobj",
					"numinlets" : 4,
					"numoutlets" : 2,
					"outlettype" : [ "", "" ],
					"patching_rect" : [ 110.0, 185.408909041904735, 113.0, 22.0 ],
					"text" : "bach.replace model"
				}

			}
, 			{
				"box" : 				{
					"id" : "obj-36",
					"maxclass" : "newobj",
					"numinlets" : 2,
					"numoutlets" : 1,
					"outlettype" : [ "" ],
					"patching_rect" : [ 110.0, 218.20987991569109, 117.0, 22.0 ],
					"reg_data_0000000000" : [ "[", "progn", "[", "ce::preferences", "t", 200000000, ":self", ":other", ":other", ":rhythm", ":rhythm", ":self", ":rhythm", ":self", ":next-pitch", ":next", "]", "[", "defvar", "nn", "[", "snn:restore", "/Users/juanvassallo/Library/CloudStorage/OneDrive-UniversityofBergen/UiB/PhD/Projects/Oscillations I - Winterreise/nn/models/der-leiermann-pitch-3000-0.001", "]", "]", "[", "defun", "binary_to_integer_representation", "[", "binarylist", "]", "[", "unless", "[", "=", "[", "length", "binarylist", "]", 8, "]", "[", "error", "Input must be an 8-bit binary array", "]", "]", "[", "let", "[", "[", "sign", "[", "if", "[", "=", "[", "first", "binarylist", "]", 1, "]", -1, 1, "]", "]", "[", "magnitude", 0, "]", "]", "[", "dotimes", "[", "i", 7, "]", "[", "setf", "magnitude", "[", "+", "magnitude", "[", "*", "[", "nth", "[", "1+", "i", "]", "binarylist", "]", "[", "expt", 2, "[", "-", 6, "i", "]", "]", "]", "]", "]", "]", "[", "*", "sign", "magnitude", "]", "]", "]", "[", "defun", "integer_to_binary_representation", "[", "input", "]", "[", "let*", "[", "[", "abs-input", "[", "abs", "input", "]", "]", "[", "binary-list", "[", "make-list", 8, ":initial-element", 0, "]", "]", "]", "[", "dotimes", "[", "i", "[", "min", 8, "[", "integer-length", "abs-input", "]", "]", "]", "[", "setf", "[", "nth", "[", "-", 7, "i", "]", "binary-list", "]", "[", "logand", "abs-input", 1, "]", "]", "[", "setq", "abs-input", "[", "ash", "abs-input", -1, "]", "]", "]", "[", "if", "[", "minusp", "input", "]", "[", "progn", "[", "setf", "[", "first", "binary-list", "]", 1, "]", "]", "]", "binary-list", "]", "]", "[", "defun", "normalize1", "[", "input", "]", "[", "map", "'vector", "[", "lambda", "[", "x", "]", "[", "if", "[", "=", "x", 1, "]", "1.0d0", "-1.0d0", "]", "]", "input", "]", "]", "[", "defun", "denormalize2", "[", "output", "]", "[", "map", "'list", "[", "lambda", "[", "x", "]", "[", "if", "[", "plusp", "x", "]", 1, 0, "]", "]", "output", "]", "]", "[", "defun", "inputs2binary", "[", "inputlist", "]", "[", "patch-work::flat", "[", "mapcar", "#'integer_to_binary_representation", "inputlist", "]", "]", "]", "[", "defun", "binary2inputs", "[", "binarylist", "]", "[", "binary_to_integer_representation", "binarylist", "]", "]", "]" ],
					"reg_data_count" : [ 1 ],
					"saved_object_attributes" : 					{
						"embed" : 1,
						"versionnumber" : 80300
					}
,
					"text" : "bach.reg @embed 1"
				}

			}
, 			{
				"box" : 				{
					"id" : "obj-1",
					"maxclass" : "newobj",
					"numinlets" : 1,
					"numoutlets" : 1,
					"outlettype" : [ "" ],
					"patching_rect" : [ 42.0, 352.0, 127.0, 22.0 ],
					"text" : "prepend code_snippet"
				}

			}
, 			{
				"box" : 				{
					"fontname" : "Andale Mono",
					"fontsize" : 14.0,
					"id" : "obj-181",
					"maxclass" : "comment",
					"numinlets" : 1,
					"numoutlets" : 0,
					"patching_rect" : [ 561.5, 398.0, 112.0, 22.0 ],
					"presentation" : 1,
					"presentation_rect" : [ 233.866383224725723, 20.846040310859621, 109.0, 22.0 ],
					"text" : "Select model",
					"textjustification" : 2
				}

			}
, 			{
				"box" : 				{
					"fontname" : "Andale Mono",
					"fontsize" : 18.0,
					"id" : "obj-183",
					"maxclass" : "comment",
					"numinlets" : 1,
					"numoutlets" : 0,
					"patching_rect" : [ 484.559294581413269, 365.933378338813782, 193.0, 27.0 ],
					"presentation" : 1,
					"presentation_rect" : [ 136.866383224725723, 0.559644058346748, 205.0, 27.0 ],
					"text" : "NeuralConstraints",
					"textjustification" : 2
				}

			}
, 			{
				"box" : 				{
					"bgcolor" : [ 0.905882352941176, 0.894117647058824, 0.894117647058824, 1.0 ],
					"fontname" : "Andale Mono",
					"fontsize" : 12.0,
					"id" : "obj-66",
					"linecount" : 3,
					"maxclass" : "comment",
					"numinlets" : 1,
					"numoutlets" : 0,
					"patching_rect" : [ 274.0, 371.0, 52.0, 47.0 ],
					"presentation" : 1,
					"presentation_rect" : [ 6.865261912345886, 22.846040310859621, 137.0, 20.0 ],
					"text" : "Model (file name)"
				}

			}
, 			{
				"box" : 				{
					"bgcolor" : [ 1.0, 0.0, 0.0, 1.0 ],
					"bgcolor2" : [ 0.2, 0.2, 0.2, 1.0 ],
					"bgfillcolor_angle" : 270.0,
					"bgfillcolor_autogradient" : 0.0,
					"bgfillcolor_color" : [ 1.0, 0.0, 0.0, 1.0 ],
					"bgfillcolor_color1" : [ 1.0, 0.0, 0.0, 1.0 ],
					"bgfillcolor_color2" : [ 0.2, 0.2, 0.2, 1.0 ],
					"bgfillcolor_proportion" : 0.5,
					"bgfillcolor_type" : "gradient",
					"fontsize" : 13.090958605664488,
					"gradient" : 1,
					"id" : "obj-19",
					"maxclass" : "message",
					"numinlets" : 2,
					"numoutlets" : 1,
					"outlettype" : [ "" ],
					"patching_rect" : [ 375.0, 25.0, 33.0, 23.0 ],
					"presentation" : 1,
					"presentation_rect" : [ 303.0, 44.846040310859621, 33.0, 23.0 ],
					"text" : "load"
				}

			}
, 			{
				"box" : 				{
					"bgcolor" : [ 0.0, 0.0, 0.0, 1.0 ],
					"bgcolor2" : [ 0.2, 0.2, 0.2, 1.0 ],
					"bgfillcolor_angle" : 270.0,
					"bgfillcolor_autogradient" : 0.0,
					"bgfillcolor_color" : [ 0.0, 0.0, 0.0, 1.0 ],
					"bgfillcolor_color1" : [ 0.0, 0.0, 0.0, 1.0 ],
					"bgfillcolor_color2" : [ 0.2, 0.2, 0.2, 1.0 ],
					"bgfillcolor_proportion" : 0.5,
					"bgfillcolor_type" : "gradient",
					"fontsize" : 12.0,
					"gradient" : 1,
					"id" : "obj-17",
					"maxclass" : "message",
					"numinlets" : 2,
					"numoutlets" : 1,
					"outlettype" : [ "" ],
					"patching_rect" : [ 396.0, 225.0, 289.0, 22.0 ],
					"presentation" : 1,
					"presentation_rect" : [ 6.865261912345886, 45.846040310859621, 238.001121312379837, 22.0 ],
					"text" : "press load to import a model file",
					"textjustification" : 1
				}

			}
, 			{
				"box" : 				{
					"angle" : 270.0,
					"bgcolor" : [ 0.945098039215686, 0.945098039215686, 0.945098039215686, 1.0 ],
					"border" : 1,
					"bordercolor" : [ 0.0, 0.0, 0.0, 1.0 ],
					"id" : "obj-13",
					"maxclass" : "panel",
					"mode" : 0,
					"numinlets" : 1,
					"numoutlets" : 0,
					"patching_rect" : [ 484.559294581413269, 436.0, 266.577639751552852, 167.0 ],
					"presentation" : 1,
					"presentation_rect" : [ 1.291510999202728, 0.559644058346748, 340.574872225522995, 84.178922891616821 ],
					"proportion" : 0.5
				}

			}
 ],
		"lines" : [ 			{
				"patchline" : 				{
					"destination" : [ "obj-6", 0 ],
					"source" : [ "obj-1", 0 ]
				}

			}
, 			{
				"patchline" : 				{
					"destination" : [ "obj-3", 0 ],
					"source" : [ "obj-19", 0 ]
				}

			}
, 			{
				"patchline" : 				{
					"destination" : [ "obj-52", 0 ],
					"source" : [ "obj-2", 0 ]
				}

			}
, 			{
				"patchline" : 				{
					"destination" : [ "obj-36", 0 ],
					"midpoints" : [ 86.916666587193788, 211.309394478797913, 119.5, 211.309394478797913 ],
					"source" : [ "obj-23", 0 ]
				}

			}
, 			{
				"patchline" : 				{
					"destination" : [ "obj-5", 0 ],
					"source" : [ "obj-3", 0 ]
				}

			}
, 			{
				"patchline" : 				{
					"destination" : [ "obj-7", 0 ],
					"midpoints" : [ 119.5, 245.203343629837036, 51.5, 245.203343629837036 ],
					"source" : [ "obj-36", 0 ]
				}

			}
, 			{
				"patchline" : 				{
					"destination" : [ "obj-17", 1 ],
					"midpoints" : [ 405.5, 212.5, 675.5, 212.5 ],
					"source" : [ "obj-4", 0 ]
				}

			}
, 			{
				"patchline" : 				{
					"destination" : [ "obj-2", 0 ],
					"midpoints" : [ 384.5, 121.130436658859253, 119.5, 121.130436658859253 ],
					"source" : [ "obj-5", 0 ]
				}

			}
, 			{
				"patchline" : 				{
					"destination" : [ "obj-4", 0 ],
					"source" : [ "obj-5", 2 ]
				}

			}
, 			{
				"patchline" : 				{
					"destination" : [ "obj-9", 0 ],
					"midpoints" : [ 395.0, 129.480993865763253, 261.5, 129.480993865763253 ],
					"source" : [ "obj-5", 1 ]
				}

			}
, 			{
				"patchline" : 				{
					"destination" : [ "obj-36", 0 ],
					"midpoints" : [ 119.5, 211.703343629837036, 119.5, 211.703343629837036 ],
					"source" : [ "obj-52", 0 ]
				}

			}
, 			{
				"patchline" : 				{
					"destination" : [ "obj-1", 0 ],
					"source" : [ "obj-7", 0 ]
				}

			}
, 			{
				"patchline" : 				{
					"destination" : [ "obj-52", 2 ],
					"midpoints" : [ 261.5, 176.834891179811621, 182.166666666666657, 176.834891179811621 ],
					"source" : [ "obj-9", 0 ]
				}

			}
 ],
		"dependency_cache" : [ 			{
				"name" : "bach.args.mxo",
				"type" : "iLaX"
			}
, 			{
				"name" : "bach.find.mxo",
				"type" : "iLaX"
			}
, 			{
				"name" : "bach.flat.mxo",
				"type" : "iLaX"
			}
, 			{
				"name" : "bach.iter.mxo",
				"type" : "iLaX"
			}
, 			{
				"name" : "bach.portal.mxo",
				"type" : "iLaX"
			}
, 			{
				"name" : "bach.reg.mxo",
				"type" : "iLaX"
			}
, 			{
				"name" : "bach.replace.maxpat",
				"bootpath" : "~/Documents/Max 8/Packages/bach/patchers",
				"patcherrelativepath" : "../../../../../../../../Documents/Max 8/Packages/bach/patchers",
				"type" : "JSON",
				"implicit" : 1
			}
, 			{
				"name" : "bach.rev.mxo",
				"type" : "iLaX"
			}
, 			{
				"name" : "bach.slice.mxo",
				"type" : "iLaX"
			}
, 			{
				"name" : "bach.subs.mxo",
				"type" : "iLaX"
			}
 ],
		"autosave" : 0
	}

}
